<?xml version="1.0" encoding="utf-8" ?>
<svg baseProfile="full" height="300" version="1.1" viewBox="124.99999999999997 -337.5 300.0 225.0" width="300" xmlns="http://www.w3.org/2000/svg" xmlns:ev="http://www.w3.org/2001/xml-events" xmlns:xlink="http://www.w3.org/1999/xlink"><defs /><line stroke="black" stroke-width="0.04" transform="scale(25.0,-25.0)" x1="15.0" x2="15.0" y1="12.5" y2="5.0" /><line stroke="black" stroke-width="0.04" transform="scale(25.0,-25.0)" x1="7.5" x2="7.5" y1="10.0" y2="12.5" /><line stroke="black" stroke-width="0.04" transform="scale(25.0,-25.0)" x1="7.5" x2="12.0" y1="12.5" y2="13.0" /><line stroke="black" stroke-width="0.04" transform="scale(25.0,-25.0)" x1="12.0" x2="15.0" y1="13.0" y2="12.5" /><line stroke="black" stroke-width="0.04" transform="scale(25.0,-25.0)" x1="7.5" x2="15.0" y1="10.0" y2="5.0" /><line stroke="black" stroke-width="0.04" transform="scale(25.0,-25.0)" x1="14.0" x2="12.0" y1="10.0" y2="8.5" /><line stroke="black" stroke-width="0.04" transform="scale(25.0,-25.0)" x1="12.0" x2="13.5" y1="8.5" y2="7.5" /><line stroke="black" stroke-width="0.04" transform="scale(25.0,-25.0)" x1="13.5" x2="14.0" y1="7.5" y2="10.0" /><line stroke="black" stroke-width="0.04" transform="scale(25.0,-25.0)" x1="9.0" x2="12.0" y1="10.5" y2="10.0" /><line stroke="black" stroke-width="0.04" transform="scale(25.0,-25.0)" x1="12.0" x2="11.0" y1="10.0" y2="9.5" /><line stroke="black" stroke-width="0.04" transform="scale(25.0,-25.0)" x1="11.0" x2="9.0" y1="9.5" y2="10.5" /><text font-size="12.5" transform="translate(137.5,-275.0)" x="0" y="0">force0</text><text font-size="12.5" transform="translate(389.437245256536,-283.56894066624096)" x="0" y="0">bc</text><text font-size="12.5" transform="translate(237.86834859952785,-228.70646842254197)" x="0" y="0">hole1</text><text font-size="12.5" transform="translate(287.86834859952774,-195.4513647743485)" x="0" y="0">hole0</text><circle cx="12.0" cy="11.5" fill="none" r="1.0" stroke="black" stroke-width="0.04" transform="scale(25.0,-25.0)" /></svg>