<?xml version="1.0" encoding="utf-8" ?>
<svg baseProfile="full" height="300" version="1.1" viewBox="-34.61538461538461 -328.84615384615387 300.0 288.46153846153845" width="300" xmlns="http://www.w3.org/2000/svg" xmlns:ev="http://www.w3.org/2001/xml-events" xmlns:xlink="http://www.w3.org/1999/xlink"><defs /><line stroke="black" stroke-width="0.08666666666666667" transform="scale(11.538461538461538,-11.538461538461538)" x1="2.499999999999997" x2="2.499999999999994" y1="27.5" y2="5.0" /><line stroke="black" stroke-width="0.08666666666666667" transform="scale(11.538461538461538,-11.538461538461538)" x1="2.499999999999994" x2="7.5" y1="5.0" y2="5.0" /><line stroke="black" stroke-width="0.08666666666666667" transform="scale(11.538461538461538,-11.538461538461538)" x1="7.5" x2="7.5" y1="5.0" y2="15.0" /><line stroke="black" stroke-width="0.08666666666666667" transform="scale(11.538461538461538,-11.538461538461538)" x1="7.5" x2="12.5" y1="15.0" y2="15.0" /><line stroke="black" stroke-width="0.08666666666666667" transform="scale(11.538461538461538,-11.538461538461538)" x1="12.5" x2="12.5" y1="15.0" y2="5.0" /><line stroke="black" stroke-width="0.08666666666666667" transform="scale(11.538461538461538,-11.538461538461538)" x1="12.5" x2="17.5" y1="5.0" y2="5.0" /><line stroke="black" stroke-width="0.08666666666666667" transform="scale(11.538461538461538,-11.538461538461538)" x1="17.5" x2="17.5" y1="5.0" y2="22.5" /><line stroke="black" stroke-width="0.08666666666666667" transform="scale(11.538461538461538,-11.538461538461538)" x1="17.5" x2="2.499999999999997" y1="22.5" y2="27.5" /><circle cx="4.999999999999998" cy="7.5" fill="none" r="1.0" stroke="black" stroke-width="0.08666666666666667" transform="scale(11.538461538461538,-11.538461538461538)" /><circle cx="15.0" cy="7.5" fill="none" r="1.0" stroke="black" stroke-width="0.08666666666666667" transform="scale(11.538461538461538,-11.538461538461538)" /><circle cx="4.999999999999998" cy="24.0" fill="none" r="1.0" stroke="black" stroke-width="0.08666666666666667" transform="scale(11.538461538461538,-11.538461538461538)" /><circle cx="15.0" cy="20.0" fill="none" r="1.0" stroke="black" stroke-width="0.08666666666666667" transform="scale(11.538461538461538,-11.538461538461538)" /><line stroke="black" stroke-width="0.08666666666666667" transform="scale(11.538461538461538,-11.538461538461538)" x1="4.999999999999998" x2="12.5" y1="18.0" y2="18.0" /><line stroke="black" stroke-width="0.08666666666666667" transform="scale(11.538461538461538,-11.538461538461538)" x1="12.5" x2="12.5" y1="18.0" y2="17.0" /><line stroke="black" stroke-width="0.08666666666666667" transform="scale(11.538461538461538,-11.538461538461538)" x1="12.5" x2="4.999999999999998" y1="17.0" y2="17.0" /><line stroke="black" stroke-width="0.08666666666666667" transform="scale(11.538461538461538,-11.538461538461538)" x1="4.999999999999998" x2="4.999999999999998" y1="17.0" y2="18.0" /><text font-size="9.230769230769232" transform="translate(69.23076923076923,-259.6153846153846)" x="0" y="0">hole0</text><text font-size="9.230769230769232" transform="translate(150.6321749996573,-245.37906872144703)" x="0" y="0">hole0</text><text font-size="9.230769230769232" transform="translate(156.40140576888808,-101.14829949067783)" x="0" y="0">hole0</text><text font-size="9.230769230769232" transform="translate(41.01679038427267,-101.14829949067783)" x="0" y="0">hole0</text><text font-size="9.230769230769232" transform="translate(86.53846153846153,-196.15384615384616)" x="0" y="0">bc</text><text font-size="9.230769230769232" transform="translate(46.153846153846125,-46.15384615384615)" x="0" y="0">a</text><text font-size="9.230769230769232" transform="translate(167.45125458105358,-48.96327189020346)" x="0" y="0">a</text><text font-size="9.230769230769232" transform="translate(11.538461538461517,-201.92307692307693)" x="0" y="0">b</text></svg>