<?xml version="1.0" encoding="utf-8" ?>
<svg baseProfile="full" height="300" version="1.1" viewBox="55.932203389830505 -269.4915254237288 300.0 289.8305084745763" width="300" xmlns="http://www.w3.org/2000/svg" xmlns:ev="http://www.w3.org/2001/xml-events" xmlns:xlink="http://www.w3.org/1999/xlink"><defs /><line stroke="black" stroke-width="0.09833333333333334" transform="scale(10.169491525423728,-10.169491525423728)" x1="7.0" x2="9.5" y1="14.0" y2="14.0" /><line stroke="black" stroke-width="0.09833333333333334" transform="scale(10.169491525423728,-10.169491525423728)" x1="9.5" x2="10.5" y1="14.0" y2="12.0" /><line stroke="black" stroke-width="0.09833333333333334" transform="scale(10.169491525423728,-10.169491525423728)" x1="12.0" x2="18.49999999999999" y1="10.5" y2="10.703125" /><line stroke="black" stroke-width="0.09833333333333334" transform="scale(10.169491525423728,-10.169491525423728)" x1="7.0" x2="8.0" y1="14.0" y2="15.5" /><line stroke="black" stroke-width="0.09833333333333334" transform="scale(10.169491525423728,-10.169491525423728)" x1="8.0" x2="10.0" y1="15.5" y2="15.5" /><line stroke="black" stroke-width="0.09833333333333334" transform="scale(10.169491525423728,-10.169491525423728)" x1="10.0" x2="12.0" y1="15.5" y2="13.5" /><line stroke="black" stroke-width="0.09833333333333334" transform="scale(10.169491525423728,-10.169491525423728)" x1="12.0" x2="18.49999999999999" y1="13.5" y2="13.296875" /><line stroke="black" stroke-width="0.09833333333333334" transform="scale(10.169491525423728,-10.169491525423728)" x1="28.0" x2="29.5" y1="11.0" y2="9.5" /><line stroke="black" stroke-width="0.09833333333333334" transform="scale(10.169491525423728,-10.169491525423728)" x1="29.5" x2="31.5" y1="9.5" y2="9.5" /><line stroke="black" stroke-width="0.09833333333333334" transform="scale(10.169491525423728,-10.169491525423728)" x1="31.5" x2="33.0" y1="9.5" y2="11.0" /><line stroke="black" stroke-width="0.09833333333333334" transform="scale(10.169491525423728,-10.169491525423728)" x1="33.0" x2="33.0" y1="11.0" y2="13.0" /><line stroke="black" stroke-width="0.09833333333333334" transform="scale(10.169491525423728,-10.169491525423728)" x1="28.0" x2="29.5" y1="13.0" y2="14.5" /><line stroke="black" stroke-width="0.09833333333333334" transform="scale(10.169491525423728,-10.169491525423728)" x1="29.5" x2="31.5" y1="14.5" y2="14.5" /><line stroke="black" stroke-width="0.09833333333333334" transform="scale(10.169491525423728,-10.169491525423728)" x1="31.5" x2="33.0" y1="14.5" y2="13.0" /><circle cx="30.5" cy="12.0" fill="none" r="1.5" stroke="black" stroke-width="0.09833333333333334" transform="scale(10.169491525423728,-10.169491525423728)" /><text font-size="10.169491525423728" transform="translate(223.72881355932202,-116.94915254237287)" x="0" y="0">handle</text><text font-size="10.169491525423728" transform="translate(305.9393717224098,-95.21946220330561)" x="0" y="0">ring</text><text font-size="10.169491525423728" transform="translate(66.10169491525423,-130.8126825422886)" x="0" y="0">clamp0</text><text font-size="10.169491525423728" transform="translate(111.86440677966101,-115.55844525415301)" x="0" y="0">clamp1</text><line stroke="black" stroke-width="0.09833333333333334" transform="scale(10.169491525423728,-10.169491525423728)" x1="28.0" x2="18.49999999999999" y1="13.0" y2="13.296875" /><line stroke="black" stroke-width="0.09833333333333334" transform="scale(10.169491525423728,-10.169491525423728)" x1="28.0" x2="18.49999999999999" y1="11.0" y2="10.703125" /><line stroke="black" stroke-width="0.09833333333333334" transform="scale(10.169491525423728,-10.169491525423728)" x1="7.0" x2="9.5" y1="10.0" y2="10.0" /><line stroke="black" stroke-width="0.09833333333333334" transform="scale(10.169491525423728,-10.169491525423728)" x1="9.5" x2="10.5" y1="10.0" y2="12.0" /><line stroke="black" stroke-width="0.09833333333333334" transform="scale(10.169491525423728,-10.169491525423728)" x1="7.0" x2="8.0" y1="10.0" y2="8.5" /><line stroke="black" stroke-width="0.09833333333333334" transform="scale(10.169491525423728,-10.169491525423728)" x1="8.0" x2="10.0" y1="8.5" y2="8.5" /><line stroke="black" stroke-width="0.09833333333333334" transform="scale(10.169491525423728,-10.169491525423728)" x1="10.0" x2="12.0" y1="8.5" y2="10.5" /></svg>